<svg xmlns="http://www.w3.org/2000/svg" viewBox="0 0 512 512" style="height: 512px; width: 512px;">
    <g class="" transform="translate(0,0)" style="">
        <path
            d="M66.89 18L128 128 18 117v32.5L96 208l-78 39v35l110 22-3.6 16c-12.6 12.1-21.9 26.5-28.46 42.5-14.43 35.2-16.64 85.7-16.9 131.5h18.1c.34-44.1 2.78-93.8 15.46-124.7 8.9-21.9 22.4-39.6 44.6-52.1-4.1-22-6.2-43.5-6.2-61.2v-14.6l13 6.6c9.6 4.7 16.5 6.2 23.1 5.7-5.2-14-8.1-29.6-8.1-45.7 0-29.1 9.1-55.2 23.3-73.7 14.2-18.5 33.1-29.3 53.7-29.3s39.5 10.8 53.7 29.3c14.2 18.5 23.3 44.6 23.3 73.7 0 16.1-2.9 31.7-8.1 45.7 6.6.5 13.6-1 23.1-5.7l13-6.6V256c0 17.7-2.1 39.2-6.2 61.2 22.2 12.5 35.7 30.2 44.6 52.1 12.7 30.9 15.1 80.6 15.5 124.7H433c-.3-45.8-2.5-96.3-16.9-131.5-6.6-16-15.9-30.5-28.6-42.6L384 304l110-22v-35l-78-39 78-58.5V117l-110 11 61.1-110h-37.8L304 80l-18.6-62h-58.8L208 80 104.7"
            fill="#fff" fill-opacity="1"></path>
    </g>
</svg>